<svg xmlns="http://www.w3.org/2000/svg" width="512" height="512" viewBox="0 0 512 512">
  <defs>
    <linearGradient id="g" x1="0" y1="0" x2="1" y2="1">
      <stop offset="0" stop-color="#00A3A3"/>
      <stop offset="1" stop-color="#0C6DD8"/>
    </linearGradient>
  </defs>
  <rect x="24" y="24" width="464" height="464" rx="112" fill="url(#g)"/>
  <path d="M110 160h292c17 0 30 13 30 30v126c0 17-13 30-30 30H238l-72 58c-9 7-22 1-22-10v-48h-34c-17 0-30-13-30-30V190c0-17 13-30 30-30z" fill="white" opacity="0.95"/>
  <circle cx="185" cy="253" r="20" fill="#0C6DD8"/>
  <circle cx="256" cy="253" r="20" fill="#0C6DD8"/>
  <circle cx="327" cy="253" r="20" fill="#0C6DD8"/>
</svg>
